HIERARCHY
ROOT Hips
{
	OFFSET 0.00000 0.00000 0.00000
	CHANNELS 6 Xposition Yposition Zposition Zrotation Yrotation Xrotation 
	JOINT LHipJoint
	{
		OFFSET 0 0 0
		CHANNELS 3 Zrotation Yrotation Xrotation
		JOINT LeftUpLeg
		{
			OFFSET 1.44361 -1.63093 0.70831
			CHANNELS 3 Zrotation Yrotation Xrotation
			JOINT LeftLeg
			{
				OFFSET 2.20103 -6.04728 0.00000
				CHANNELS 3 Zrotation Yrotation Xrotation
				JOINT LeftFoot
				{
					OFFSET 2.54154 -6.98283 0.00000
					CHANNELS 3 Zrotation Yrotation Xrotation
					JOINT LeftToeBase
					{
						OFFSET 0.05971 -0.16406 1.77582
						CHANNELS 3 Zrotation Yrotation Xrotation
						End Site
						{
							OFFSET 0.00000 -0.00000 0.90832
						}
					}
				}
			}
		}
	}
	JOINT RHipJoint
	{
		OFFSET 0 0 0
		CHANNELS 3 Zrotation Yrotation Xrotation
		JOINT RightUpLeg
		{
			OFFSET -1.65838 -1.63093 0.70830
			CHANNELS 3 Zrotation Yrotation Xrotation
			JOINT RightLeg
			{
				OFFSET -2.26926 -6.23475 0.00000
				CHANNELS 3 Zrotation Yrotation Xrotation
				JOINT RightFoot
				{
					OFFSET -2.34808 -6.45129 0.00000
					CHANNELS 3 Zrotation Yrotation Xrotation
					JOINT RightToeBase
					{
						OFFSET -0.18633 -0.51195 1.68539
						CHANNELS 3 Zrotation Yrotation Xrotation
						End Site
						{
							OFFSET -0.00000 -0.00000 0.88927
						}
					}
				}
			}
		}
	}
	JOINT LowerBack
	{
		OFFSET 0 0 0
		CHANNELS 3 Zrotation Yrotation Xrotation
		JOINT Spine
		{
			OFFSET -0.10393 2.01691 0.06920
			CHANNELS 3 Zrotation Yrotation Xrotation
			JOINT Spine1
			{
				OFFSET 0.04092 2.01302 -0.05283
				CHANNELS 3 Zrotation Yrotation Xrotation
				JOINT Neck
				{
					OFFSET 0 0 0
					CHANNELS 3 Zrotation Yrotation Xrotation
					JOINT Neck1
					{
						OFFSET -0.02870 1.58978 -0.03113
						CHANNELS 3 Zrotation Yrotation Xrotation
						JOINT Head
						{
							OFFSET 0.11532 1.54326 -0.29195
							CHANNELS 3 Zrotation Yrotation Xrotation
							End Site
							{
								OFFSET 0.04056 1.59999 -0.09535
							}
						}
					}
				}
				JOINT LeftShoulder
				{
					OFFSET 0 0 0
					CHANNELS 3 Zrotation Yrotation Xrotation
					JOINT LeftArm
					{
						OFFSET 3.30641 1.15764 0.01104
						CHANNELS 3 Zrotation Yrotation Xrotation
						JOINT LeftForeArm
						{
							OFFSET 4.63208 -0.00000 0.00000
							CHANNELS 3 Zrotation Yrotation Xrotation
							JOINT LeftHand
							{
								OFFSET 3.41924 -0.00000 -0.00000
								CHANNELS 3 Zrotation Yrotation Xrotation
								JOINT LeftFingerBase
								{
									OFFSET 0 0 0
									CHANNELS 3 Zrotation Yrotation Xrotation
									JOINT LeftHandIndex1
									{
										OFFSET 0.62537 -0.00000 -0.00000
										CHANNELS 3 Zrotation Yrotation Xrotation
										End Site
										{
											OFFSET 0.50419 -0.00000 -0.00000
										}
									}
								}
								JOINT LThumb
								{
									OFFSET 0 0 0
									CHANNELS 3 Zrotation Yrotation Xrotation
									End Site
									{
										OFFSET 0.51189 -0.00000 0.51189
									}
								}
							}
						}
					}
				}
				JOINT RightShoulder
				{
					OFFSET 0 0 0
					CHANNELS 3 Zrotation Yrotation Xrotation
					JOINT RightArm
					{
						OFFSET -3.78081 1.02180 -0.16609
						CHANNELS 3 Zrotation Yrotation Xrotation
						JOINT RightForeArm
						{
							OFFSET -4.40640 -0.00000 -0.00000
							CHANNELS 3 Zrotation Yrotation Xrotation
							JOINT RightHand
							{
								OFFSET -3.44675 -0.00000 0.00000
								CHANNELS 3 Zrotation Yrotation Xrotation
								JOINT RightFingerBase
								{
									OFFSET 0 0 0
									CHANNELS 3 Zrotation Yrotation Xrotation
									JOINT RightHandIndex1
									{
										OFFSET -0.51367 -0.00000 -0.00000
										CHANNELS 3 Zrotation Yrotation Xrotation
										End Site
										{
											OFFSET -0.41414 -0.00000 -0.00000
										}
									}
								}
								JOINT RThumb
								{
									OFFSET 0 0 0
									CHANNELS 3 Zrotation Yrotation Xrotation
									End Site
									{
										OFFSET -0.42046 -0.00000 0.42046
									}
								}
							}
						}
					}
				}
			}
		}
	}
}
MOTION
Frames: 7
Frame Time: .0083333
7.4255 19.5428 16.1465 177.6390 -2.7699 -165.5610 0.0000 0.0000 0.0000 -22.5170 -5.0117 -9.9704 6.7257 15.0965 47.8291 -0.1811 8.4949 1.1053 0.3969 -4.0449 -11.2030 0.0000 0.0000 0.0000 14.1057 16.0819 -35.2979 -2.3152 -9.4939 27.3528 -0.5235 2.3062 -13.0702 -0.5341 4.6831 -13.0068 -4.6847 -1.5391 1.1125 3.2173 -2.2359 2.6953 5.9438 -1.3219 2.4690 -2.7688 -0.5483 -7.7792 1.9822 0.1103 19.0797 1.1531 0.3388 7.1130 -0.0000 0.0000 0.0000 -91.4832 -2.0772 30.0838 11.8752 -19.6171 -2.0602 -0.0000 -0.0000 25.8021 26.0611 -22.5743 -10.6329 -7.1250 0.0000 -0.0000 -1.8045 5.1561 1.6358 -0.0000 0.0000 0.0000 89.5583 -5.0621 -32.0625 -7.1980 12.2446 -0.7731 0.0000 0.0000 40.4039 -20.4238 -34.8112 12.0011 7.1250 -0.0000 -0.0000 16.6919 -65.8296 -8.4989
7.4523 19.5983 15.8722 177.8860 -2.8552 -165.8390 0.0000 0.0000 0.0000 -22.0648 -5.5164 -12.7246 7.7373 15.9226 51.6108 -0.1707 7.4700 -1.0691 0.3061 -3.5569 -9.8334 0.0000 0.0000 0.0000 15.0238 16.0888 -33.3659 -2.2433 -9.3556 26.9140 -0.5991 2.4604 -13.9870 -0.4337 4.2260 -11.7135 -4.3232 -1.3374 1.0437 3.2119 -1.9620 2.6378 5.7355 -1.1719 2.3952 -2.9328 -0.7041 -7.7560 2.1300 -0.1025 19.0753 1.2110 0.2406 7.1131 -0.0000 -0.0000 0.0000 -91.2576 -1.0664 28.8473 11.8067 -19.5142 -2.0373 -0.0000 -0.0000 25.9593 28.8061 -23.2956 -12.2690 -7.1250 0.0000 -0.0000 -0.2035 3.8112 0.1896 -0.0000 -0.0000 0.0000 89.2920 -3.9268 -27.6177 -7.7522 13.1504 -0.8949 0.0000 0.0000 37.1701 -21.6467 -34.2666 12.5962 7.1250 -0.0000 -0.0000 14.7102 -65.6578 -7.4109
7.4809 19.6521 15.6005 178.1500 -2.9467 -166.1100 0.0000 0.0000 0.0000 -21.5461 -6.2931 -15.5208 8.6979 16.6094 55.0395 -0.1306 6.3964 -2.5359 0.7627 -5.5773 -15.5627 0.0000 0.0000 0.0000 15.9287 16.2990 -31.3100 -2.1539 -9.1795 26.3584 -0.6845 2.4396 -14.9894 -0.3488 3.7944 -10.4990 -3.9977 -1.1683 0.9352 3.2218 -1.7315 2.5786 5.5620 -1.0461 2.3533 -3.1943 -0.8207 -7.7832 2.3276 -0.2504 19.1448 1.3078 0.1726 7.1453 0.0000 0.0000 0.0000 -91.0770 -0.3218 27.2852 11.5348 -19.1033 -1.9474 -0.0000 -0.0000 25.7091 29.4431 -23.8732 -12.8681 -7.1250 0.0000 -0.0000 0.1004 3.0393 -0.0949 0.0000 0.0000 0.0000 88.9697 -2.7601 -22.8234 -8.3546 14.1261 -1.0370 0.0000 0.0000 33.2884 -22.8959 -33.4570 13.1070 7.1250 -0.0000 -0.0000 12.4869 -65.2239 -6.1486
7.5102 19.7056 15.3315 178.2250 -3.0504 -166.4830 0.0000 0.0000 0.0000 -21.1998 -7.2863 -18.0955 9.4782 17.1058 57.7295 -0.0623 4.7766 -3.6637 0.3932 -4.0265 -11.1513 0.0000 0.0000 0.0000 16.6394 16.4552 -29.1236 -2.0544 -8.9784 25.7279 -0.7794 2.4656 -16.0267 -0.2462 3.1932 -8.8170 -3.9345 -1.0051 0.8762 3.2035 -1.5112 2.5953 5.5091 -0.9348 2.3732 -3.4565 -0.9343 -7.9194 2.5228 -0.3906 19.2764 1.4055 0.1081 7.2177 -0.0000 0.0000 0.0000 -90.9464 0.2439 25.8080 11.2379 -18.6519 -1.8513 -0.0000 -0.0000 25.1487 29.4012 -23.7154 -12.7696 -7.1250 0.0000 -0.0000 0.0988 3.2210 -0.0931 -0.0000 0.0000 0.0000 88.5863 -1.4492 -18.0196 -8.9929 15.1491 -1.1983 0.0000 0.0000 28.8591 -23.8747 -34.3431 14.0200 7.1250 -0.0000 -0.0000 12.0594 -66.3740 -6.2547
7.5340 19.7570 15.0676 178.0740 -3.2216 -166.9390 0.0000 0.0000 0.0000 -21.1147 -8.5021 -20.3836 10.0277 17.4254 59.5808 0.0079 3.0321 -4.7369 0.0842 -1.8711 -5.1496 0.0000 0.0000 0.0000 17.1680 15.9833 -26.9685 -1.9397 -8.7394 24.9834 -0.8645 2.8742 -16.8343 -0.1323 2.3442 -6.4579 -4.0010 -0.7436 0.9232 3.0329 -1.1493 2.5691 5.3749 -0.7452 2.2714 -3.8040 -0.1220 -7.5159 3.1896 -1.0774 19.0114 1.5395 -0.8409 7.0723 -0.0000 0.0000 0.0000 -90.6341 0.9234 24.6517 11.0010 -18.2898 -1.7762 -0.0000 -0.0000 24.7591 29.6940 -23.0810 -12.6017 -7.1250 0.0000 -0.0000 0.3736 3.8493 -0.3477 -0.0000 0.0000 0.0000 88.4239 -0.4742 -13.4776 -9.7819 16.3976 -1.4127 0.0000 0.0000 24.0097 -24.4018 -35.1050 14.6219 7.1250 -0.0000 -0.0000 12.1030 -67.2762 -6.5272
7.5582 19.8031 14.8079 178.0620 -3.3684 -167.4320 0.0000 0.0000 0.0000 -20.8085 -9.6745 -22.6592 10.3908 17.6238 60.7865 0.0619 1.3524 -5.4040 0.5523 -4.7605 -13.2268 0.0000 0.0000 0.0000 17.8729 15.3301 -24.8159 -1.8153 -8.4702 24.1515 -0.9336 3.3594 -17.4397 -0.0640 1.6320 -4.4897 -3.8715 -0.2771 0.9845 2.7109 -0.5012 2.4068 4.9727 -0.3943 1.9831 -3.4195 -0.4574 -6.4606 3.5228 -1.7218 18.6481 1.5311 -1.1184 6.7912 -0.0000 0.0000 0.0000 -89.8516 1.8621 23.8321 10.8076 -17.9927 -1.7160 -0.0000 -0.0000 24.4713 29.7400 -22.4577 -12.3114 -7.1250 0.0000 -0.0000 0.4945 4.5237 -0.4540 -0.0000 0.0000 0.0000 88.7172 0.0589 -10.0418 -10.7195 17.8571 -1.6889 0.0000 0.0000 19.5906 -24.0964 -34.5584 14.2355 7.1250 -0.0000 -0.0000 11.9779 -66.6502 -6.2877
7.5898 19.8421 14.5527 178.3420 -3.4743 -167.9200 0.0000 0.0000 0.0000 -20.0481 -10.8148 -25.1907 10.4405 17.6502 60.9509 0.0731 1.7444 -6.0630 4.6112 -12.9321 -39.1147 0.0000 0.0000 0.0000 18.8825 15.0268 -22.6264 -1.6922 -8.1933 23.3027 -1.0081 3.5036 -18.1262 -0.0428 1.3353 -3.6718 -3.7555 -0.1437 1.0522 2.7898 -0.3374 2.5351 4.9906 -0.3201 2.0582 -3.6258 -0.4453 -7.1108 3.6062 -1.7044 19.2284 1.5930 -1.1169 7.0951 0.0000 -0.0000 0.0000 -89.8166 2.1898 21.5263 10.6226 -17.7075 -1.6593 -0.0000 -0.0000 24.6134 29.5157 -21.8303 -11.8884 -7.1250 0.0000 -0.0000 0.4458 5.2625 -0.4030 0.0000 -0.0000 0.0000 88.2209 1.6152 -6.1566 -11.4432 18.9644 -1.9175 0.0000 0.0000 15.6864 -24.2825 -34.0300 14.1697 7.1250 -0.0000 -0.0000 11.2760 -66.1844 -5.7947
